<?xml version="1.0" encoding="UTF-8"?><svg id="Layer_1" xmlns="http://www.w3.org/2000/svg" viewBox="0 0 36.94 51.83"><defs><style>.cls-1{stroke:#f5f5f5;stroke-miterlimit:10;}.cls-1,.cls-2{fill:#f5f5f5;}.cls-2{stroke-width:0px;}</style></defs><path class="cls-2" d="M19.06.62s3.19,2.46-.06,6.53c0,0-4.82-2.48.06-6.53Z"/><path class="cls-2" d="M18.62,1.06c.16.12.29.27.42.42.03.03.05.06.07.09.06.08-.07-.1.03.04.06.09.13.18.18.27.06.1.12.21.18.32.02.05.05.1.07.15.03.07.03.07,0,0,.01.04.03.07.04.11.2.59.27,1.09.17,1.7-.16.94-.65,1.8-1.23,2.54l.76-.1c-.14-.07-.27-.16-.4-.25-.06-.04-.12-.09-.18-.13,0,0,.09.07-.01,0-.04-.03-.07-.06-.11-.09-.16-.13-.3-.27-.44-.43-.04-.04-.07-.09-.11-.13-.08-.09,0,0-.03-.03-.07-.1-.14-.19-.2-.3s-.11-.2-.16-.3c-.05-.09.02.06-.03-.07-.02-.06-.04-.12-.06-.18s-.03-.12-.05-.19c0-.03-.03-.17-.02-.11s0-.11,0-.15c0-.07,0-.14,0-.21s0-.14.02-.21c-.01.1.01-.06.02-.09.03-.16.08-.31.14-.46.33-.86,1.11-1.62,1.83-2.22.26-.22.22-.66,0-.88-.26-.26-.62-.22-.88,0-1.32,1.11-2.61,2.66-2.32,4.5.17,1.09.93,1.98,1.79,2.62.19.14.39.28.6.39.22.12.58.12.76-.1,1.18-1.5,2.06-3.42,1.42-5.34-.25-.76-.72-1.57-1.37-2.07-.27-.21-.62-.26-.88,0-.22.22-.27.68,0,.88Z"/><path class="cls-2" d="M19.72,13.36c-.34.11-.69.14-1.03.1-1.34-.17-4.68-1.01-4.3-5.27,0-.08.08-.14.15-.12.31.05.96.43,1.69.72.82.34,1.69.68,1.86.83.05.05.05.06.07.08l.45,1.09.46,1.83s.04.1.07.09.08-.08.09-.1l.31-2.02.61-1.35s0,0,0-.01,0,0,0,0c0,0,.85-.38,1.72-.68.66-.23,1.38-.67,1.64-.58.04.58.6,3.96-3.81,5.39Z"/><path class="cls-2" d="M19.56,12.76c-.29.08-.56.11-.86.08-.12-.01.09.01,0,0-.05,0-.1-.02-.15-.02-.22-.04-.43-.09-.65-.15-.52-.15-.96-.33-1.42-.65-.48-.33-.87-.79-1.12-1.32-.15-.32-.25-.68-.31-1.03-.04-.22-.05-.44-.06-.67,0-.13,0-.26,0-.39,0-.07.09-.38-.01-.2l-.37.29c-.2.06-.18-.04,0,.05.06.03.12.05.17.08.25.11.49.23.74.35.51.23,1.04.43,1.55.65.16.07.36.22.52.24.09.01.06.06,0-.09-.09-.19-.04-.08-.02-.03.09.26.21.5.31.75.14.34.22.69.31,1.05.1.4.15,1.13.5,1.42.28.23.6.23.88,0,.38-.31.36-1.08.42-1.52.04-.25.14-.55.12-.8,0-.15-.04.04-.04.05.04-.1.09-.2.14-.3l.37-.82s.1-.16.09-.19c.04.16-.39.26-.06.14.48-.18.94-.38,1.42-.56.29-.11.57-.23.86-.35.12-.05.23-.11.35-.15.08-.03.33-.04.1-.08l-.46-.6c.02.28.05.55.04.83,0,.48-.05.78-.22,1.27-.47,1.4-1.82,2.23-3.17,2.68-.76.25-.43,1.46.33,1.21,1.72-.57,3.28-1.6,3.96-3.34.34-.86.36-1.74.3-2.65-.02-.25-.18-.56-.46-.6-.52-.08-.95.15-1.42.35-.57.25-1.17.44-1.74.68-.31.13-.72.23-.92.52-.12.18-.19.41-.27.6-.2.44-.39.82-.46,1.29l-.16,1.01-.07.42s-.03.1-.02.13c.02.11-.16.07.07-.12h.88c.16.13.08.23.05.05-.01-.11-.05-.22-.08-.32l-.21-.85c-.08-.32-.16-.6-.29-.91-.2-.49-.33-.99-.81-1.27-.81-.46-1.73-.73-2.57-1.12-.32-.15-.69-.37-1.05-.41-.6-.05-.84.43-.87.95-.05.78.02,1.59.27,2.32.4,1.15,1.21,2.09,2.28,2.65s2.41.92,3.57.59c.77-.22.44-1.43-.33-1.21Z"/><path class="cls-2" d="M19.4,21.13c-.48.14-.98.17-1.46.1-1.89-.29-6.56-1.62-5.71-7.6.02-.11.12-.19.22-.17.43.09,1.33.64,2.34,1.09,1.14.51,2.35,1.03,2.58,1.25.07.07.07.09.09.12l.56,1.56.51,2.59s.04.14.1.14.12-.11.13-.13l.59-2.82.96-1.86s0,0,0-.01.01,0,.01,0c0,0,1.23-.5,2.49-.89.95-.29,2.01-.87,2.37-.75,0,.82.57,5.59-5.79,7.4Z"/><path class="cls-2" d="M19.23,20.52c-1.48.37-3.35-.34-4.53-1.24-.69-.52-1.24-1.22-1.56-2.03-.2-.51-.32-1.06-.37-1.6-.02-.29-.03-.58-.02-.87,0-.26-.04-.75.09-.98l-.37.29c-.15.04,0,.01.13.08.1.05.21.1.31.15.34.17.68.35,1.03.52.71.35,1.44.65,2.16.98.21.1.5.33.72.36.2.03,0-.11.06,0,.16.34.26.72.39,1.07.18.49.26.98.36,1.5s.11,1.5.55,1.89c.19.17.53.26.76.1.6-.43.6-1.37.74-2.04.08-.37.19-.75.23-1.12.02-.17.04-.17-.01-.05.06-.13.13-.25.19-.37l.59-1.15s.17-.24.16-.3c0,0-.5.25-.29.23.07,0,.21-.08.27-.11.71-.28,1.43-.52,2.16-.76.41-.13.81-.3,1.22-.46.2-.08.64-.32.82-.29l-.46-.6c.02,1.04-.02,2.03-.42,3.01-.85,2.06-2.86,3.18-4.9,3.78-.77.23-.44,1.43.33,1.21,2.34-.69,4.6-2,5.63-4.31.53-1.19.64-2.41.61-3.69,0-.26-.19-.55-.46-.6-.66-.13-1.28.21-1.88.45-.83.33-1.7.57-2.53.88-.38.14-.91.25-1.16.59-.18.24-.29.57-.43.83-.3.59-.58,1.09-.71,1.73l-.3,1.42-.12.59s-.05.14-.04.19c.03.14-.31.17.14-.15l.76.1c.13.12.04.19.04.02,0-.12-.05-.25-.07-.36l-.24-1.19c-.09-.47-.18-.91-.34-1.36-.2-.56-.33-1.28-.83-1.65-.97-.72-2.28-1.06-3.35-1.6-.72-.36-2.32-1.45-2.66-.07-.25,1.05-.15,2.33.11,3.37.4,1.6,1.44,2.94,2.84,3.79s3.34,1.44,4.99,1.03c.78-.19.45-1.4-.33-1.21Z"/><path class="cls-2" d="M20.09,31.09c-.59.2-1.22.27-1.82.2-2.39-.27-8.34-1.73-7.76-9.45.01-.14.13-.25.26-.23.55.09,1.72.75,3.01,1.28,1.47.59,3.03,1.19,3.33,1.47.09.08.09.12.12.15l.83,1.97.85,3.3s.07.17.13.17.14-.15.15-.18l.5-3.62s0-.04.01-.05l1.04-2.42s0-.01,0-.02.02-.01.02-.01c0,0,1.5-.71,3.04-1.27,1.16-.42,2.44-1.23,2.9-1.08.08,1.05,1.17,7.14-6.63,9.8Z"/><path class="cls-2" d="M19.92,30.48c-1.89.58-4.29-.25-5.87-1.33-.95-.65-1.71-1.54-2.21-2.58-.3-.62-.49-1.29-.61-1.96-.08-.44-.12-.88-.13-1.33-.01-.33-.12-1,.03-1.3l-.37.29c.33-.1,1.61.68,2.03.87.89.39,1.8.73,2.69,1.11.39.16.99.32,1.25.66s.39.92.56,1.32c.07.16.15.33.21.5.02.05-.06-.19,0,.05.1.43.22.85.33,1.28.16.63.24,1.88.78,2.32.28.23.6.23.88,0,.6-.5.51-1.89.6-2.58.06-.45.13-.9.19-1.35.02-.16,0-.13-.01-.09.05-.16.14-.32.21-.48l.64-1.49c.05-.11.16-.27.17-.4-.02.2-.35.23.06.06.88-.35,1.74-.74,2.63-1.09.47-.18.94-.39,1.4-.6.28-.13.85-.53,1.17-.48l-.46-.6c.11,1.34.14,2.63-.28,3.93-.87,2.72-3.32,4.36-5.9,5.26-.75.26-.43,1.47.33,1.21,2.89-1.01,5.52-2.79,6.64-5.75.58-1.52.58-3.07.46-4.66-.02-.25-.18-.56-.46-.6-.8-.12-1.55.34-2.26.66-1.02.47-2.08.83-3.11,1.28-.42.18-1.03.33-1.3.73-.22.32-.34.78-.49,1.14-.31.72-.61,1.34-.72,2.11l-.25,1.81-.12.84c0,.07-.04.17-.03.24.02.13-.08.08,0,.01h.88c.1.08-.02.05-.03-.11,0-.18-.1-.38-.14-.55l-.39-1.49c-.15-.59-.3-1.12-.54-1.68-.29-.68-.48-1.55-1.14-1.96-1.43-.89-3.2-1.34-4.72-2.04-1.08-.5-2.59-1.25-2.68.56-.06,1.35.06,2.74.5,4.02.68,1.95,2.06,3.53,3.89,4.49s4.06,1.55,6,.96c.77-.24.44-1.44-.33-1.21Z"/><path class="cls-2" d="M27.49,31c.09,1.18.97,8.93-8.02,11.07-.38.09-.76.1-1.15.04-2.25-.36-9.75-2.27-8.87-11.61,0,0,2.02.44,3.81,1.33,1.6.8,3.06,1.91,3.39,2.25.1.1.36.52.39.56l.44,1.32c.07.48.19.91.29,1.37l.84,3.08s.07.2.15.2.16-.16.16-.19l.58-3.24c.08-.49.15-.97.34-1.42l1.12-2.61s0-.01,0-.02.02-.01.02-.01c0,0,1.64-.66,3.33-1.15,1.28-.37,2.67-1.16,3.18-.95Z"/><path class="cls-2" d="M26.86,31c.26,3.25-.56,6.54-3.3,8.58-1.17.87-2.57,1.49-3.99,1.81-.88.2-1.66.03-2.51-.21-1.67-.47-3.26-1.28-4.51-2.5-2.2-2.17-2.74-5.22-2.48-8.19l-.79.6c1.57.35,3.1.91,4.49,1.71.77.44,1.64.93,2.27,1.55.39.38.41.5.58,1.01.32.98.51,1.99.78,2.98.2.75.3,2.12.9,2.68.18.17.53.27.76.1.73-.56.68-1.86.83-2.7.18-1.02.32-2.03.74-2.98l.71-1.65s.16-.34.15-.35c.08.08-.62.27-.18.19.12-.02.24-.09.36-.14.97-.37,1.95-.68,2.94-.99.51-.16,1-.36,1.49-.55.31-.12.88-.44,1.22-.36.78.19,1.12-1.02.33-1.21s-1.67.28-2.41.57c-1.11.43-2.27.73-3.39,1.14-.4.15-1.08.28-1.38.63-.25.3-.36.8-.51,1.15-.47,1.11-.89,2.1-1.1,3.3-.1.6-.21,1.19-.32,1.79l-.15.83c-.02.09-.06.21-.05.3.01.18-.15.14.1-.04l.76.1c.06.05-.06-.19-.09-.31l-.2-.73c-.15-.56-.31-1.12-.46-1.68-.27-1-.39-2.09-.84-3.04-.59-1.25-2.2-2.09-3.34-2.73-1.44-.81-3.04-1.4-4.66-1.76-.42-.09-.76.19-.79.6-.25,2.96.26,5.98,2.17,8.33,1.33,1.63,3.19,2.74,5.17,3.4.65.21,1.31.38,1.98.49,1.63.25,3.47-.54,4.88-1.31,2.21-1.2,3.86-3.16,4.62-5.56.5-1.57.58-3.21.45-4.84-.06-.8-1.31-.8-1.25,0Z"/><path class="cls-1" d="M36.85,40.91s-12.7,2.24-17.77,9.67c0,0-1.81-8.03,17.77-9.67Z"/><path class="cls-1" d="M.08,40.98s12.97,2.19,18.96,9.59c0,0,.81-8.04-18.96-9.59Z"/></svg>